<svg xmlns="http://www.w3.org/2000/svg" width="256" height="256"><path fill-opacity=".016" d="M0 128.004v128.004l128.25-.254 128.25-.254.254-127.75L257.008 0H0v128.004m.485.496c0 70.4.119 99.053.265 63.672.146-35.38.146-92.98 0-128C.604 29.153.485 58.1.485 128.5" fill="#1976D2" fill-rule="evenodd"/><path fill-opacity=".231" d="M115.25 1.166c.138.641-1.254 1.493-3.093 1.892-1.838.4-3.814 1.199-4.389 1.774-1.742 1.742-2.806 11.223-2.127 18.947.566 6.439.979 7.565 3.576 9.75 3.96 3.332 9.033 3.312 12.393-.048 3.063-3.063 4.39-2.459 4.39 1.999 0 2.932.389 3.446 3.041 4.029 3.466.761 5.959-.758 5.959-3.631 0-2.169.38-2.279 2.764-.801 1.211.751 2.552.764 4.436.044 3.645-1.395 5.222-7.335 4.441-16.723-.958-11.521-.748-11.359-13.966-10.779-7.716.338-8.601.189-9.15-1.539-.333-1.052-1.938-2.377-3.566-2.944C118.332 2.568 117 1.631 117 1.052 117 .473 116.55 0 116 0s-.888.525-.75 1.166m35.663 7.704c-2.056 1.664-2.355 2.92-2.729 11.459-.419 9.583-.417 9.592 2.622 12.63 4.662 4.663 10.677 3.875 13.602-1.781 1.446-2.797 1.496-15.753.078-20.222-1.274-4.015-9.61-5.296-13.573-2.086m18.112-.886c-.866.536-1.442 4.483-1.784 12.223-.599 13.592.136 15.793 5.275 15.793 3.891 0 4.655-1.52 4.272-8.5-.407-7.438.206-15.5 1.18-15.5.554 0 1.089 5.03 1.25 11.738.306 12.753.59 13.28 6.361 11.832 2.392-.601 2.421-.752 2.421-12.518 0-9.493-.319-12.228-1.571-13.481-1.829-1.828-1.122-1.674-9.527-2.068-3.628-.17-7.173.046-7.877.481M135 22.059c0 6.451.359 9.837 1 9.441.552-.341 1-4.844 1-10.059 0-5.627-.404-9.441-1-9.441-.6 0-1 4.02-1 10.059m-5.373 24.47c-.345.899-.627 3.674-.627 6.166v4.532l-4.643-.696c-2.554-.383-10.467-.374-17.585.019-10.723.593-13.238 1.034-14.67 2.571-1.433 1.539-2.927 1.799-8.752 1.527-3.862-.18-7.517-.633-8.121-1.007-1.718-1.061-6.671 6.141-6.427 9.345.18 2.359-.246 2.853-2.921 3.388-4.8.96-5.763.786-7.613-1.374-.942-1.1-2.489-2-3.439-2-.949 0-2.94-1.125-4.424-2.5-1.483-1.375-3.476-2.5-4.429-2.5-.952 0-2.291-.675-2.976-1.5-.887-1.068-3.233-1.5-8.154-1.5-7.783 0-8.82.903-6.388 5.566.841 1.614 1.532 3.504 1.536 4.201.003.697 1.919 3.245 4.256 5.662 2.338 2.418 4.964 5.223 5.838 6.234.873 1.01 2.401 2.306 3.396 2.88 1.515.875 1.617 1.4.627 3.25C43.461 90.007 42.115 91 41.12 91c-.996 0-2.607.881-3.581 1.957-1.352 1.494-3.341 2.026-8.405 2.25-5.931.262-6.667.522-6.942 2.457-.408 2.863 1.932 3.538 12.429 3.586 4.609.022 8.379.453 8.379.96 0 1.624-1.933 4.606-5.508 8.499-3.934 4.283-4.429 7.404-1.493 9.419 1.63 1.119 1.883 2.063 1.369 5.122l-.63 3.75-7.119.175c-3.915.096-8.806.066-10.869-.067l-3.75-.243V139h9.8c10.671 0 12.2.648 12.2 5.171 0 2.289-.567 2.918-3.25 3.61-3.115.803-3.262 1.063-3.529 6.278-.275 5.367-.206 5.516 5.105 10.941 2.961 3.025 7.231 7.075 9.489 9 2.914 2.485 4.116 4.295 4.144 6.242.024 1.626.855 3.249 2.041 3.99 1.1.687 2 1.786 2 2.441 0 .656.899 1.478 1.998 1.826 1.098.349 2.276 1.745 2.617 3.103.341 1.357 1.804 3.098 3.252 3.867 3.248 1.727 8.133 6.275 8.133 7.571 0 .528 1.2.96 2.666.96s3.379.669 4.25 1.487c4.98 4.675 11.393 9.513 12.61 9.513.772 0 1.885.9 2.474 2 .589 1.1 1.674 2 2.413 2 .738 0 1.878.646 2.534 1.436.655.789 2.51 1.725 4.122 2.079 1.612.354 2.931 1.069 2.931 1.589s1.154 1.384 2.565 1.921c3.112 1.183 6.886-.45 6.013-2.602l-1.185-2.923c-.466-1.151.152-1.5 2.654-1.5 2.538 0 4.104.914 7.066 4.123 2.456 2.659 4.353 3.912 5.347 3.531 1.96-.752 1.98-3.044.04-4.654-2.283-1.895-1.814-4 .892-4 1.646 0 2.567.701 2.956 2.25.311 1.238 2.587 4.234 5.059 6.659 4.194 4.116 4.712 4.347 7.793 3.468 2.934-.836 3.335-1.38 3.617-4.909.174-2.182.688-4.347 1.142-4.811 1.132-1.154 5.041 1.071 5.041 2.87 0 .801.9 2.018 2 2.705 1.1.687 2 1.746 2 2.354 0 .607.9 1.919 2 2.914 1.1.995 2 2.362 2 3.036 0 .675 1.575 2.428 3.5 3.896s3.505 3.209 3.511 3.869c.011 1.248 6.194 7.699 7.379 7.699.373 0 1.997 1.35 3.61 3 3.276 3.351 8.357 4.118 9.393 1.418 1.225-3.191.554-9.523-1.393-13.157-1.1-2.052-2-4.92-2-6.374 0-1.453-.617-3.154-1.372-3.781-.754-.626-1.601-3.174-1.881-5.663-.281-2.488-1.185-5.293-2.01-6.234-.825-.94-1.832-2.834-2.237-4.209-.405-1.375-1.31-3.175-2.011-4-2.126-2.503-2.835-11.178-1.104-13.5 1.441-1.932 1.538-1.938 2.856-.16 1.239 1.671 1.486 1.694 2.684.25 2.068-2.491 12.572-2.2 14.807.41 1.872 2.186 5.308 2.584 8.334.965 2.551-1.366 2.519-5.952-.066-9.238-1.1-1.398-2-3.008-2-3.578 0-.57-.787-1.628-1.75-2.352s-2.614-2.332-3.669-3.573c-1.876-2.204-1.877-2.287-.042-3.629 1.478-1.08 1.85-2.549 1.748-6.9-.102-4.341.294-5.911 1.844-7.313 1.752-1.586 1.953-2.968 1.79-12.334-.204-11.774.636-13.115 5.713-9.121 4.3 3.382 9.307 2.768 15.162-1.86 3.44-2.719 6.165-4.03 8.831-4.25 2.833-.233 3.951-.816 4.213-2.197.501-2.642-1.706-3.742-6.101-3.041-3.418.546-3.877.342-5.047-2.239-.708-1.562-2.166-4.315-3.24-6.118-1.87-3.14-2.183-3.266-7.452-3-5.138.26-5.52.454-5.809 2.955-.368 3.177-2.566 5.277-4.678 4.466-2.132-.818-1.879-4.001.487-6.143 1.1-.995 2-2.345 2-3 0-3.135 3.616-4.5 11.921-4.5 6.749 0 8.729.366 10.806 2 1.399 1.1 3.537 2 4.753 2 1.215 0 3.025.9 4.02 2 3.025 3.342 4.5 2.522 4.5-2.5 0-2.475-.45-4.5-1-4.5s-1-.485-1-1.077c0-1.695-5.052-6.296-10.25-9.336-3.085-1.803-4.75-3.458-4.75-4.721 0-1.069-1.8-3.817-4-6.106-2.2-2.29-4-4.522-4-4.961 0-.44-2.475-.799-5.5-.799-4.959 0-5.5-.211-5.5-2.147 0-1.181 1.624-4.129 3.609-6.551 3.544-4.325 3.576-4.444 1.793-6.603-2.55-3.087-7.544-7.699-8.338-7.699-2.026 0-3.064 3.06-3.064 9.033 0 3.649-.251 6.885-.558 7.192-1.187 1.186-4.638-.612-5.494-2.862-.494-1.3-1.536-2.363-2.316-2.363-.78 0-1.677-.675-1.994-1.5-.654-1.705-3.207-2.007-4.144-.49-.343.555.305 2.191 1.441 3.635 1.136 1.443 2.065 3.364 2.065 4.268 0 .903.9 2.413 2 3.355 2.288 1.959 2.687 5.732.607 5.732-.766 0-1.652-.675-1.969-1.5-.336-.877-1.835-1.5-3.607-1.5H181V73.305c0-10.245-.113-10.814-2.687-13.5-1.478-1.543-3.13-2.805-3.671-2.805-.542 0-1.807-.745-2.813-1.655-1.702-1.54-1.956-1.54-3.658 0-2.622 2.373-7.171 2.2-7.171-.274 0-1.06-.707-2.635-1.571-3.5-2-2-6.429-2.08-6.429-.116 0 1.617 4.551 6.545 6.045 6.545 1.641 0 1.078 5.739-.627 6.393-2.534.973-3.108.763-6.091-2.22-2.692-2.693-5.545-7.545-6.76-11.497-.984-3.2-4.033-1.567-4.356 2.332-.469 5.686-.805 6.134-3.632 4.846-2.157-.983-2.527-1.879-2.783-6.744-.256-4.844-.586-5.651-2.419-5.913-1.252-.179-2.38.368-2.75 1.332M96.5 74c-.34.55-.141 1 .441 1S98 74.55 98 74s-.198-1-.441-1-.719.45-1.059 1m55.946 30.087c-.369.598-.171 1.588.441 2.2.817.817 1.113.528 1.113-1.087 0-2.415-.519-2.787-1.554-1.113M142 160.059c0 .582.45.781 1 .441s1-.816 1-1.059-.45-.441-1-.441-1 .477-1 1.059m10.015 2.691c-.008 1.238.435 2.25.985 2.25 1.253 0 1.253-1.061 0-3-.784-1.213-.972-1.069-.985.75m32.064 1.833c.048 1.165.285 1.402.604.605.289-.722.253-1.585-.079-1.917-.332-.332-.568.258-.525 1.312m-31.412 8.084c-.367.366-.667 1.131-.667 1.7 0 .626.466.567 1.183-.15.651-.651.951-1.416.667-1.7-.284-.285-.817-.217-1.183.15m-11.028 3.027c-1.126 1.126-.685 2.306.861 2.306.825 0 1.5-.423 1.5-.941 0-1.261-1.562-2.164-2.361-1.365" fill="#1976D2" fill-rule="evenodd"/><path fill-opacity=".513" d="M108.571 5.571C107.329 6.814 107 9.498 107 18.384c0 11.143.026 11.267 2.95 14.068 2.499 2.395 3.511 2.735 6.626 2.229 2.049-.332 4.309-1.5 5.107-2.639 2.642-3.772 5.317-2.025 5.317 3.472 0 2.526 2.604 3.959 5.307 2.922 1.329-.51 1.639-2.937 1.891-14.773.173-8.128-.101-14.453-.643-14.843-.52-.374-3.012-.435-5.538-.136-4.222.5-4.688.334-5.783-2.07C121.162 4.261 120.499 4 115.593 4c-3.621 0-5.977.527-7.022 1.571M138.5 8.578c-1.072.45-1.021 23.769.055 25.511.716 1.159 4.611.149 5.68-1.474.404-.613.741-5.937.75-11.83.013-9.579-.19-10.824-1.919-11.75-2.013-1.077-2.883-1.164-4.566-.457m13.091.699c-1.606 1.202-1.949 2.922-2.157 10.826-.235 8.906-.113 9.541 2.346 12.147 3.184 3.375 7.118 3.573 9.931.5 2.933-3.205 3.475-5.843 1.844-8.983-.824-1.588-1.028-2.974-.487-3.309 1.38-.853 1.13-7.805-.353-9.833-1.732-2.368-8.643-3.206-11.124-1.348m17.893-.251c-.418.676-.98 6.243-1.251 12.371-.536 12.151.187 14.107 4.962 13.43 2.235-.317 2.32-.707 2.805-12.827.275-6.875.467-12.608.427-12.74-.315-1.036-6.322-1.239-6.943-.234m10.277-.276c-.197.412-.111 6.375.191 13.25l.548 12.5h6l.282-11.218c.256-10.157.091-11.409-1.75-13.25-2.047-2.047-4.61-2.67-5.271-1.282m-49.228 38.417c-.258.733-.596 3.358-.751 5.833l-.282 4.5-17.416.231c-16.144.215-17.579.385-19.652 2.333-1.988 1.867-3.131 2.051-10.302 1.654-7.973-.441-8.094-.411-10.556 2.561-2 2.414-2.284 3.394-1.44 4.971 1.384 2.587.321 3.446-5.285 4.266-3.857.565-4.985.348-6.606-1.273-1.074-1.074-3.236-2.275-4.804-2.669-1.567-.393-3.458-1.583-4.201-2.645C48.495 65.868 46.835 65 45.55 65c-1.285 0-2.595-.675-2.912-1.5-.436-1.137-2.279-1.5-7.607-1.5-7.452 0-8.325.705-5.499 4.441.807 1.068 1.468 2.563 1.468 3.324 0 .76 1.553 3.037 3.451 5.059 1.898 2.022 4.512 4.801 5.809 6.176 1.296 1.375 3.228 2.997 4.293 3.605 2.877 1.644.956 6.482-2.993 7.538-1.618.432-3.327 1.477-3.8 2.321C37.127 95.595 35.217 96 30.509 96c-6.193 0-8.739 1.17-6.79 3.119.52.52 5.285.957 10.59.971 5.305.015 9.873.396 10.152.847.83 1.343-2.118 6.338-5.913 10.017-4.075 3.949-4.406 5.867-1.451 8.397 1.717 1.47 1.975 2.464 1.423 5.473-.372 2.022-1.114 4.126-1.649 4.676-.536.55-5.676 1-11.423 1H15v7.5h10.378c11.809 0 12.937.606 12.437 6.676-.278 3.365-.669 3.875-3.315 4.325-2.795.474-3.021.841-3.309 5.354l-.309 4.845 9.57 9.15c6.579 6.291 9.566 9.853 9.559 11.401-.006 1.286 1.609 3.858 3.768 6 2.079 2.062 4.564 4.987 5.523 6.499.959 1.513 2.296 2.754 2.971 2.76.675.005 2.802 1.801 4.727 3.99 2.477 2.817 4.304 3.983 6.25 3.99 1.513.006 2.75.388 2.75.85C76 204.958 87.69 214 89.137 214c.623 0 2.155 1.012 3.404 2.25 3.464 3.432 4.897 4.437 7.516 5.268 1.323.42 3.654 1.687 5.181 2.816 2.182 1.613 3.036 1.792 3.994.834.957-.957.949-1.649-.041-3.234-1.771-2.836-.692-3.934 3.869-3.934 3.292 0 4.589.666 7.86 4.037 2.652 2.733 4.154 3.652 4.651 2.848.414-.67-.025-1.744-1.006-2.461-2.548-1.864-1.579-4.863 1.693-5.24 2.099-.243 2.954.226 3.649 2 .5 1.274 2.96 4.308 5.468 6.742 4.166 4.044 4.777 4.326 7.092 3.271 1.874-.854 2.533-1.918 2.533-4.094 0-4.159.94-6.103 2.952-6.103 1.581 0 5.048 2.886 5.048 4.202 0 .3 1.8 2.514 4 4.921 2.2 2.407 4 5.139 4 6.072 0 .933 1.233 2.287 2.741 3.01 1.507.722 3.384 2.654 4.169 4.293.786 1.639 2.557 3.868 3.936 4.953a97.698 97.698 0 014.977 4.261c1.358 1.258 2.853 2.288 3.323 2.288.47 0 .854.675.854 1.5 0 2.031 4.609 1.961 5.393-.082 1.088-2.836.64-8.927-.81-10.997-.78-1.113-1.73-3.8-2.113-5.972-.382-2.172-1.249-4.849-1.927-5.949-.678-1.1-1.498-4.009-1.822-6.465-.323-2.456-1.263-4.958-2.088-5.562-.825-.603-1.831-2.414-2.235-4.025-.405-1.61-1.334-3.527-2.067-4.26-.732-.732-1.331-2.453-1.331-3.825 0-1.372-.44-3.316-.977-4.321-.692-1.292-.524-2.734.573-4.934 1.642-3.292 3.236-3.876 5.204-1.908.933.933 1.467.933 2.4 0 .678-.678 3.925-1.2 7.461-1.2 5.056 0 6.635.401 8.201 2.082 2.247 2.412 5.908 2.257 7.522-.319 1.443-2.301-2.46-9.897-7.633-14.859-3.719-3.566-3.733-3.61-1.75-5.405 1.484-1.343 1.999-3.08 1.999-6.746 0-3.466.612-5.716 2.053-7.548 1.769-2.248 2.038-3.935 1.938-12.158-.063-5.251-.087-10.109-.053-10.797.099-1.994 5.57-1.451 7.562.75 2.32 2.564 8.656 2.706 11.093.25 4.243-4.277 7.928-6.25 11.675-6.25 3.161 0 3.814-.324 3.528-1.75-.25-1.247-1.205-1.7-3.323-1.576-5.21.305-7.219-.525-7.907-3.266-.36-1.435-1.634-3.934-2.832-5.554-1.932-2.613-2.689-2.912-6.701-2.65-4.115.269-4.568.557-5.028 3.189-.64 3.668-3.317 5.528-5.755 4-2.359-1.479-2.729-4.866-.775-7.082.879-.996 2.747-3.274 4.15-5.061 2.536-3.229 2.61-3.25 11.392-3.25 6.679 0 9.222.382 10.401 1.561.859.859 3.122 1.815 5.029 2.124 1.907.31 4.231 1.407 5.165 2.439 2.485 2.746 3.388 2.313 3.388-1.624 0-1.925-.364-3.5-.808-3.5-.445 0-2.132-1.776-3.75-3.947-1.664-2.231-5.224-5.108-8.192-6.619-3.682-1.874-5.25-3.267-5.25-4.664 0-1.096-1.823-4.17-4.051-6.831-3.778-4.512-4.401-4.858-9.25-5.139-4.934-.285-5.216-.451-5.535-3.251-.194-1.711.252-3.391 1.063-4 .769-.577 2.224-2.459 3.233-4.183l1.835-3.135-3.829-4.138c-2.106-2.276-4.31-3.98-4.898-3.787-.587.194-1.293 3.916-1.568 8.273-.488 7.736-.558 7.915-3 7.664-1.375-.142-3.417-1.379-4.538-2.75-4.419-5.407-6.221-1.266-1.962 4.507 3.118 4.226 3.339 8 .469 8-1.118 0-2.299-.696-2.625-1.547-.4-1.04-1.618-1.45-3.719-1.25l-3.125.297-.282-11.2-.283-11.2-4.687-4.006c-4.048-3.461-4.896-3.82-6.218-2.634-.841.755-2.88 1.523-4.53 1.706-2.428.27-3.06.858-3.316 3.084-.353 3.066-3.311 5.162-6.056 4.291-2.519-.8-8.35-7.994-9.591-11.833-1.352-4.183-2.901-3.747-3.572 1.005-.839 5.936-1.666 6.666-4.785 4.224-2.103-1.646-2.788-3.195-3.18-7.19-.475-4.833-2.458-7.453-3.467-4.58M154 51.448c0 .722 4.668 5.552 5.365 5.552 1.32 0 .563-2.755-1.194-4.345-1.692-1.531-4.171-2.248-4.171-1.207m-46 18.933c0 5.855 1.416 6.623 12.184 6.605 10.087-.016 13.022-.684 12.599-2.865-.267-1.377-1.967-1.621-11.299-1.621H110.5v-2.912c0-1.602-.562-3.102-1.25-3.334-.878-.296-1.25.931-1.25 4.127m-11.61 1.045c-.723 1.883-3.504 2.06-5.232.332-.988-.988-1.436-.938-2.198.25-1.908 2.974-.623 4.481 4.049 4.753 5.305.307 6.844-.496 7.216-3.764.32-2.812-2.859-4.114-3.835-1.571M184.5 71c-.34.55.084 1 .941 1S187 71.55 187 71s-.423-1-.941-1-1.219.45-1.559 1M98.25 96.662c-1.823.736-1.53 2.775.687 4.781 2.328 2.107 4.063 1.297 4.063-1.895 0-1.797-2.142-4.027-3.332-3.469-.092.043-.73.306-1.418.583M112 98.441c0 .793.45 1.719 1 2.059.55.34 1-.309 1-1.441 0-1.132-.45-2.059-1-2.059s-1 .648-1 1.441m10.954.645c-.614 1.147-.967 2.216-.785 2.377.182.16 3.369.607 7.082.994 5.659.589 6.849.447 7.357-.877.333-.869.303-2.367-.068-3.33-.642-1.667-.721-1.667-1.657 0-1.214 2.162-6.166 2.319-7.883.25-1.69-2.036-2.723-1.886-4.046.586m-34.38.581c-.814 2.122.805 3.785 2.902 2.981 1.278-.491 1.388-1.034.532-2.633-1.312-2.451-2.578-2.579-3.434-.348m58.676.995c-.687.278-1.25 1.801-1.25 3.384 0 1.584-.827 5.034-1.837 7.667-1.157 3.015-1.805 7.193-1.75 11.287.084 6.282.177 6.51 2.77 6.81 1.89.218 3.008-.299 3.785-1.75 1.395-2.606 3.197-2.627 4.802-.056 1.081 1.73 2.172 1.969 7.991 1.75 6.519-.246 6.732-.335 6.523-2.754-.118-1.375.011-4.337.287-6.582.425-3.46 1.029-4.334 3.965-5.734 1.905-.908 3.464-2.142 3.464-2.741 0-.599.787-.94 1.75-.756 1.466.279 1.831 1.793 2.25 9.323l.5 8.99h5.746l.174-11.5c.096-6.325-.24-12.062-.745-12.75-1.347-1.831-4.049-1.528-6.675.75-1.848 1.603-3.741 2-9.529 2h-7.223l-.459 5.535c-.488 5.882-2.026 8.628-3.826 6.828-.571-.571-1.314-5.048-1.651-9.95-.337-4.902-1.108-9.244-1.713-9.648-1.226-.819-5.427-.878-7.349-.103m2.438 9.984c-.379.378-.688 2.637-.688 5.021 0 3.705.298 4.333 2.055 4.333 1.823 0 2.02-.526 1.75-4.672-.286-4.379-1.539-6.261-3.117-4.682M131 123c0 1.65.45 3 1 3s1-1.35 1-3-.45-3-1-3-1 1.35-1 3m-14.313 3.048L113.874 129h2.863c3.274 0 5.263-1.587 5.263-4.2 0-2.619-2.097-2.127-5.313 1.248m-20.406 2.702c-.362.963-1.36 2.298-2.219 2.968-1.412 1.102-1.409 1.221.033 1.25 1.793.036 4.905-3.007 4.905-4.797 0-1.807-1.983-1.385-2.719.579m-6.572 21.874c-1.574 1.574-.702 10.115 1.291 12.649 2.542 3.231 2.518 3.517-.525 6.338-1.995 1.848-2.386 2.923-1.862 5.115.956 3.996 1.076 4.113 5.413 5.281 3.159.851 4.54.752 6.958-.499 1.659-.857 3.016-1.998 3.016-2.534 0-.536.871-.974 1.937-.974 1.454 0 2.014.81 2.25 3.25.261 2.71.771 3.303 3.069 3.567 1.797.207 2.965-.228 3.357-1.25.4-1.044 1.875-1.567 4.423-1.567 6.153 0 7.044-1.67 6.853-12.848-.091-5.309-.358-10.439-.594-11.402-.603-2.457-4.466-2.199-6.734.45l-1.884 2.2-1.46-2.2c-1.807-2.721-3.379-2.783-5.692-.227-1.288 1.422-1.611 2.845-1.161 5.098.895 4.472-.197 7.929-2.504 7.929-1.963 0-2.243-.445-3.296-5.25-.489-2.235-1.149-2.75-3.524-2.75-3.467 0-4.448-1.237-3.615-4.557.68-2.71 3.042-3.275 3.937-.943.316.825 1.293 1.5 2.17 1.5 1.197 0 1.517-.811 1.281-3.25-.312-3.236-.339-3.251-6.354-3.542-3.323-.161-6.36.026-6.75.416m43.041 5.846c-2.106 2.896-2.332 7.53-.367 7.53.761 0 1.631-.947 1.934-2.105.633-2.42 3.019-2.075 3.52.509.211 1.091-.44 1.941-1.75 2.284-1.148.3-2.087 1.068-2.087 1.706 0 .639-.9 1.932-2 2.874-2.361 2.022-2.716 7.892-.584 9.662.835.693 3.809 1.051 7.25.872l5.834-.302.286-10.969c.272-10.414.171-11.057-2-12.727-3.324-2.558-7.913-2.254-10.036.666m20.327.119c-3.003 2.526-3.077 2.798-3.062 11.25.009 4.764.411 9.285.894 10.048.485.766 3.241 1.613 6.163 1.894 4.9.471 5.452.299 7.565-2.35l2.279-2.859 2.48 2.33c3.433 3.225 10.115 3.83 14.166 1.282 2.96-1.862 3.067-2.185 3.221-9.697.158-7.749.147-7.781-3.508-11.129-4.767-4.367-7.812-4.328-12.165.153-1.865 1.919-3.791 3.489-4.281 3.489-.49 0-2.273-1.575-3.963-3.5-3.667-4.177-5.685-4.364-9.789-.911m23.581 3.086C175.173 161.16 176.054 164 178 164c1.1 0 2-.62 2-1.378 0-1.696-2.441-3.848-3.342-2.947m-61.957.957c-.859.86-.933 11.601-.094 13.786.881 2.297 3.275 1.938 4.451-.668 1.441-3.195-.117-13.138-2.119-13.523-.845-.163-1.852.019-2.238.405m42.631.618c-1.229 1.954-.788 12.696.577 14.042.961.947 1.666.607 3.266-1.575 1.647-2.247 2.317-2.554 3.475-1.593 1.994 1.655 3.492-.077 3.691-4.265.147-3.097-.094-3.383-3.09-3.672-1.959-.189-3.66-1.082-4.285-2.25-1.194-2.231-2.507-2.479-3.634-.687m18.918 7.412c-1.72.694-1.576 5.823.206 7.302 1.96 1.627 3.252.644 4.074-3.1.837-3.813-.934-5.552-4.28-4.202m-80.549.97c-1.188 1.188-.776 5.061.666 6.258 1.829 1.517 3.907-.931 3.46-4.075-.322-2.261-2.758-3.55-4.126-2.183m39.038 2.257c-.272 1.039-.118 2.498.342 3.242 1.263 2.044 3.273-.44 2.451-3.03-.829-2.611-2.139-2.71-2.793-.212" fill="#1976D2" fill-rule="evenodd"/><path fill-opacity=".372" d="M109.2 6.2c-.788.788-1.2 4.982-1.2 12.218 0 10.685.08 11.087 2.656 13.3 3.922 3.371 7.576 2.978 10.725-1.151 1.441-1.889 2.622-4.026 2.625-4.75.011-2.273 3.245 4.511 3.902 8.183.467 2.613 1.129 3.5 2.609 3.5 1.872 0 1.999-.801 2.261-14.365l.278-14.366-2.528.616-5.041 1.227c-2.147.522-2.671.158-3.598-2.5C120.863 5.167 120.525 5 115.602 5c-2.861 0-5.742.54-6.402 1.2m5.5 9.004c-.674 7.239.257 13.948 2.017 14.535 1.769.59 2.415-3.206 2.08-12.232-.238-6.388-.619-8.047-1.904-8.292-1.292-.246-1.722.93-2.193 5.989m24.239-5.524c-.034.451-.06 5.995-.058 12.32.003 9.953.229 11.547 1.68 11.846.96.199 1.403-.095 1.036-.688-.351-.569.062-1.427.919-1.907 1.286-.72 1.508-2.694 1.271-11.312-.274-9.964-.389-10.454-2.537-10.759-1.238-.175-2.278.05-2.311.5m13.015.875c-.801.965-1.346 4.784-1.437 10.061-.126 7.319.146 8.845 1.95 10.944 4.454 5.183 11.149 1.531 10.651-5.81-.085-1.256-.974-1.75-3.149-1.75-3.41 0-4.868-2.212-2.966-4.503.773-.932 2.108-1.256 3.611-.879 2.179.547 2.386.291 2.386-2.953 0-2.537-.635-3.997-2.223-5.108-2.849-1.996-7.167-1.997-8.823-.002m17.539.63c-.318 1.273-.446 6.815-.285 12.315l.292 10 2.781.319 2.782.32-.282-12.32c-.27-11.856-.364-12.331-2.496-12.634-1.62-.23-2.369.307-2.792 2m11.316-1.435c-.17.412-.169 6.037.002 12.5.309 11.704.32 11.75 2.75 11.75 2.436 0 2.439-.015 2.439-10.845 0-9.236-.271-11.09-1.829-12.5-2.003-1.813-2.889-2.052-3.362-.905m-50.007 43.5l-.302 5.25-17.462.275c-16.113.253-17.633.435-19.68 2.359-1.962 1.843-3.182 2.04-10.536 1.706-7.871-.357-8.432-.242-10.49 2.141-1.972 2.285-2.031 2.678-.632 4.232 2.528 2.807.931 4.437-5.032 5.138-6.146.723-8.549.141-10.475-2.535C55.461 70.798 53.645 70 52.06 70c-1.986 0-2.982-.595-3.35-2-.375-1.437-1.364-2-3.509-2-1.733 0-3.229-.63-3.563-1.5-.417-1.088-2.124-1.5-6.214-1.5-4.983 0-5.553.203-4.902 1.75.404.963.96 2.788 1.234 4.056C32.269 71.179 44.322 84 46.039 84c1.079 0 1.243 3.348.331 6.75-.439 1.636-1.348 2.25-3.332 2.25-1.5 0-3.543.9-4.538 2-1.448 1.6-3.08 2-8.155 2-3.563 0-6.345.438-6.345 1 0 .602 4.1 1 10.3 1 12.337 0 13.639.739 10.446 5.924-1.211 1.967-3.675 5.053-5.474 6.859-3.826 3.84-4.054 5.248-1.143 7.065 1.869 1.168 2.055 1.95 1.526 6.416-.331 2.797-1.177 5.45-1.879 5.895-.702.446-6.113.817-12.026.826L15 132v2.467c0 2.46.034 2.468 11.239 2.75l11.238.283 1.373 2.868c2.075 4.336.444 8.976-3.386 9.633-2.612.448-3.002.967-3.281 4.367-.224 2.723.218 4.379 1.5 5.629.999.974 2.937 3.173 4.306 4.887 1.369 1.714 2.814 3.116 3.212 3.116.397 0 2.765 1.985 5.261 4.411 3.107 3.02 4.538 5.237 4.538 7.031 0 1.442.658 2.873 1.462 3.182.804.308 1.734 1.419 2.067 2.468.333 1.05 1.262 1.908 2.063 1.908.802 0 1.892 1.144 2.424 2.541.531 1.398 2.221 3.262 3.754 4.142 1.534.88 3.901 3.099 5.259 4.931 1.885 2.541 3.225 3.337 5.654 3.358 2.289.02 3.36.589 3.817 2.028.349 1.1 1.121 2 1.714 2 .594 0 3.002 1.575 5.351 3.5 2.35 1.925 5.025 3.5 5.947 3.5.921 0 1.911.9 2.198 2 .294 1.122 1.364 2 2.438 2 1.053 0 2.167.658 2.476 1.462.308.804 1.532 1.766 2.718 2.137 1.187.372 3.231 1.514 4.543 2.539 2.885 2.253 4.115 2.361 4.115.362 0-.825-.48-1.5-1.066-1.5-.587 0-.924-1.238-.75-2.75.304-2.643.511-2.737 5.316-2.42 3.506.232 5.46.917 6.538 2.295 1.676 2.141 2.962 1.588 2.962-1.273 0-1.129 1.002-2.065 2.655-2.48 3.057-.767 5.69.555 6.192 3.109.191.971 2.343 3.761 4.781 6.2 5.498 5.497 8.372 5.306 8.372-.557 0-7.737 5.924-9.781 9.218-3.182.945 1.894 2.408 3.829 3.25 4.3.843.472 1.532 1.494 1.532 2.273 0 .778.9 1.896 2 2.485s2 1.962 2 3.051c0 1.28 1.24 2.572 3.5 3.65 2.178 1.039 3.5 2.384 3.5 3.561C169 243.61 180.16 253 184.14 253c1.495 0 1.86-.764 1.86-3.893 0-2.38-.534-4.098-1.375-4.42-.756-.291-1.698-2.685-2.093-5.322-.395-2.636-1.352-5.697-2.125-6.802-.774-1.104-1.407-3.647-1.407-5.651 0-2.089-.826-4.693-1.938-6.106-1.066-1.355-2.235-3.647-2.598-5.094-.363-1.446-1.291-3.154-2.062-3.793-.771-.64-1.402-2.536-1.402-4.213s-.745-3.871-1.655-4.877c-1.477-1.633-1.494-2.017-.152-3.579.827-.963 1.751-2.456 2.054-3.318.449-1.279 2.595-1.607 11.626-1.778 10.166-.192 11.179-.043 12.342 1.818.696 1.115 2.253 2.028 3.458 2.028 3.628 0 4.241-6.051.75-7.391-.783-.301-1.434-1.573-1.447-2.828-.015-1.483-1.414-3.31-4-5.223-4.432-3.279-4.942-4.971-1.976-6.558 1.648-.882 2-2.094 2-6.88 0-4.609.429-6.198 2.074-7.687 1.847-1.672 2.055-2.915 1.909-11.405-.243-14.016-.545-13.028 3.982-13.028 2.941 0 4.241.516 5.035 2 .778 1.453 2.086 1.997 4.785 1.988 2.938-.01 4.613-.847 8.008-4 3.505-3.255 5.021-3.988 8.25-3.988 2.177 0 3.957-.436 3.957-.968s-2.334-.87-5.186-.75c-5.152.217-5.192.195-5.906-3.19-.396-1.874-1.437-3.809-2.314-4.299-.877-.491-1.594-1.545-1.594-2.343 0-1.052-1.235-1.45-4.5-1.45-4.291 0-4.5.134-4.5 2.878 0 3.712-2.036 5.338-6.185 4.94-3.06-.294-3.339-.615-3.632-4.177-.246-2.993.147-4.184 1.75-5.307 1.137-.796 2.075-1.984 2.084-2.641.01-.656 1.086-2.205 2.391-3.443 2.108-1.998 3.403-2.25 11.575-2.25 7.687 0 9.62.329 11.744 2 1.399 1.1 3.816 2 5.373 2 1.806 0 3.217.723 3.9 2 1.106 2.067 3 2.727 3 1.044 0-1.196-3.798-6.838-6.702-9.955-2.691-2.888-6.88-5.411-11.048-6.654-.687-.205-1.25-1.528-1.25-2.94 0-1.662-1.499-4.123-4.25-6.978-3.753-3.894-4.831-4.446-9.218-4.714-4.677-.285-5.023-.498-5.917-3.632-.846-2.964-.662-3.567 1.676-5.5 4.168-3.446 4.434-6.861.822-10.555-1.675-1.714-3.286-3.116-3.579-3.116-.294 0-.534 3.545-.534 7.878 0 9.335-1.263 11.306-5.474 8.547-1.434-.939-3.062-2.557-3.617-3.595-.555-1.037-1.437-1.622-1.959-1.299-1.481.915-1.134 2.285 1.16 4.579 1.16 1.16 2.345 3.86 2.632 6 .511 3.81.456 3.89-2.642 3.89-1.879 0-3.395-.605-3.734-1.49-.37-.964-1.683-1.405-3.719-1.25l-3.147.24-.284-11.421c-.256-10.26-.51-11.642-2.5-13.602-3.164-3.116-6.457-4.704-7.214-3.48-.341.552-2.168 1.003-4.061 1.003-3.102 0-3.441.276-3.441 2.8 0 3.502-1.64 5.2-5.02 5.2-4.193 0-9.822-6.05-12.558-13.5-.561-1.527-.919-.845-1.515 2.887-1.074 6.722-2.328 7.717-5.467 4.332-1.386-1.495-2.953-2.719-3.48-2.719-.528 0-.96-2.25-.96-5 0-6.644-1.813-6.438-2.198.25m-24.104 12.385c-1.033 1.034.386 10.725 1.699 11.6.607.404 6.335.741 12.731.75 12.767.017 14.488-.682 13.304-5.398-.828-3.302-4.498-4.355-7.6-2.182C125.341 71.45 122.41 72 118.341 72h-6.214l-.314-3.25c-.229-2.38-.859-3.328-2.354-3.542-1.123-.161-2.365.032-2.761.427M95.768 70c-1.48 2.37-3.326 2.593-4.13.5C90.226 66.819 87 69.583 87 74.475 87 77.274 88.653 78 95.025 78c3.89 0 5.173-.444 6.418-2.223 2.28-3.254 1.919-5.689-1.008-6.802-3.339-1.269-3.217-1.296-4.667 1.025m-8.309 26.427c-1.026 6.838-.364 7.706 5.782 7.587 2.892-.056 6.348.03 7.678.192 1.997.243 2.573-.288 3.301-3.042 1.125-4.254-.355-6.164-4.775-6.164-2.462 0-3.477.527-3.962 2.055-.932 2.934-2.983 1.802-2.983-1.647 0-2.226-.511-2.981-2.18-3.218-1.887-.269-2.271.299-2.861 4.237m23.208-.76c-1.143 1.142-.73 6.036.602 7.141 1.62 1.345 24.424 1.92 25.615.645 1.774-1.897 2.099-5.094.711-6.992-1.397-1.911-1.441-1.911-3.545-.006-2.027 1.834-2.271 1.846-4.995.237-3.763-2.223-5.747-2.136-7.055.308-.589 1.1-2.071 2-3.295 2-1.223 0-2.786-.9-3.473-2-1.246-1.995-3.303-2.596-4.565-1.333m34.45 5.583c-.462 1.237-1.426 3.825-2.141 5.75-1.567 4.213-2.801 21.576-1.676 23.578 1.188 2.113 5.4 1.722 7.852-.73 1.866-1.866 2.298-1.953 3.25-.656 1.417 1.931 12.396 3.215 15.947 1.865 2.119-.805 2.653-1.665 2.662-4.282.006-1.801.294-4.986.639-7.076.52-3.144.994-3.749 2.739-3.5 1.782.254 2.061.875 1.791 3.979-.556 6.394 3.756 11.661 9.041 11.044l3.364-.392-.356-12.665c-.196-6.966-.539-13.227-.761-13.915-.678-2.091-8.201-1.507-11.441.888-2.447 1.809-3.684 2.032-8.051 1.453-6.347-.842-7.976.288-7.976 5.531 0 2.133-.45 3.878-1 3.878-.565 0-1-2.855-1-6.566 0-9.117-.891-10.434-7.057-10.434-4.255 0-5.109.33-5.826 2.25M150 116c0 1.1.45 2 1 2s1-.9 1-2-.45-2-1-2-1 .9-1 2m-58.454 3.741c-.436 1.137.048 2.321 1.393 3.411 2.214 1.792 2.748 5.305.974 6.402-.598.369-1.588.171-2.2-.441-1.68-1.68-2.713-1.342-2.713.887 0 1.1.892 2.892 1.982 3.982 1.647 1.647 2.447 1.805 4.73.938 5.154-1.96 5.729-6.54 1.61-12.83-2.873-4.389-4.707-5.135-5.776-2.349m38.543-.348c-.667.803-1.071 3.403-.9 5.783.256 3.554.667 4.324 2.311 4.324 1.487 0 2.242-.982 2.945-3.828 1.342-5.431-1.573-9.632-4.356-6.279m-12.494 2.503c-.981 1.083-2.344 1.754-3.029 1.491-1.796-.689-3.775 2.115-3.393 4.808.296 2.088.846 2.305 5.827 2.305h5.5v-4.986c0-5.639-1.845-7-4.905-3.618m-14.109 9.148c-.834 2.628.569 4.256 2.9 3.362 2.165-.831 1.749-4.765-.551-5.203-.998-.19-1.938.546-2.349 1.841M90 149.289c-2.16 1.089-2.541 2.034-2.799 6.954-.248 4.727.049 5.99 1.75 7.447 2.575 2.205 2.588 3.492.049 5.078-1.218.76-1.995 2.321-1.986 3.99.026 5.199 1.122 7.319 4.094 7.914 1.566.313 3.362 1.19 3.992 1.949 1.325 1.596 3.9 1.848 3.9.382 0-.549 1.463-1.596 3.25-2.329 3.139-1.285 3.291-1.234 4.452 1.498.937 2.206 1.859 2.828 4.193 2.828 1.826 0 3.52-.755 4.348-1.937.965-1.377 2.789-2.028 6.307-2.25l4.95-.313v-27l-3.82-.315c-2.101-.173-4.423.187-5.161.799-.925.768-1.542.788-1.989.065-.826-1.336-7.21-1.375-8.03-.049-1.119 1.811-2.331 1.046-2.973-1.878-.522-2.374-1.279-2.984-4.33-3.489-5.369-.887-7.392-.757-10.197.656m44.302 3.747c-2.405.942-5.302 5.745-5.302 8.792 0 1.06.686 2.497 1.525 3.193 1.365 1.133 1.359 1.449-.056 3.013-1.127 1.246-1.493 3.285-1.275 7.107l.306 5.359h16l.291-11c.332-12.557-.088-15.175-2.543-15.84-4.621-1.253-6.928-1.413-8.946-.624m16.948 2.605c-2.032 2.194-2.25 3.433-2.25 12.772 0 12.538.49 13.211 9.319 12.822 3.307-.146 6.584-.739 7.283-1.319.893-.742 1.889-.723 3.358.063 3.477 1.86 13.38 1.684 16.395-.292 2.554-1.674 2.645-2.06 2.645-11.287 0-9.226-.1-9.654-2.923-12.477-2.453-2.453-3.729-2.923-7.933-2.923-4.036 0-5.126.368-5.61 1.892-.985 3.104-4.639 3.381-7.569.575-3.49-3.344-9.534-3.261-12.715.174m-47.071 7.502c.176 1.846.771 3.244 1.321 3.107 1.486-.371 1.212-5.513-.321-6.024-.959-.319-1.233.482-1 2.917M116 167.392c0 3.367.392 5.484.951 5.138 1.053-.651.839-9.073-.258-10.17-.381-.381-.693 1.883-.693 5.032m42 .501c0 4.485.598 5.035 2.564 2.357.707-.963 2.557-1.75 4.111-1.75 4.005 0 3.839-2.964-.175-3.106-1.65-.058-3.787-.444-4.75-.857-1.505-.646-1.75-.175-1.75 3.356m18 3.975c0 1.834 1.653 3.829 2.471 2.982 1.26-1.304.79-4.327-.721-4.637-1.206-.248-1.75.266-1.75 1.655" fill="#1976D2" fill-rule="evenodd"/></svg>